<mxfile host="app.diagrams.net" agent="Mozilla/5.0 (Windows NT 10.0; Win64; x64) AppleWebKit/537.36 (KHTML, like Gecko) Chrome/131.0.0.0 Safari/537.36 Edg/131.0.0.0" version="25.0.3">
  <diagram name="Page-1" id="seX-xeZQWfRZG2hzAD2O">
    <mxGraphModel dx="1718" dy="1571" grid="1" gridSize="10" guides="1" tooltips="1" connect="1" arrows="1" fold="1" page="1" pageScale="1" pageWidth="850" pageHeight="1100" math="0" shadow="0">
      <root>
        <mxCell id="0" />
        <mxCell id="1" parent="0" />
        <mxCell id="qHf3B6MGzQlvMGt3Hq3a-3" value="" style="edgeStyle=orthogonalEdgeStyle;rounded=0;orthogonalLoop=1;jettySize=auto;html=1;" parent="1" source="qHf3B6MGzQlvMGt3Hq3a-1" edge="1">
          <mxGeometry relative="1" as="geometry">
            <mxPoint x="-475" y="-970" as="targetPoint" />
          </mxGeometry>
        </mxCell>
        <mxCell id="qHf3B6MGzQlvMGt3Hq3a-1" value="&lt;font data-font-src=&quot;https://fonts.googleapis.com/css?family=Sarabun&quot; face=&quot;Sarabun&quot;&gt;Start&lt;/font&gt;" style="ellipse;whiteSpace=wrap;html=1;" parent="1" vertex="1">
          <mxGeometry x="-540.0000000000001" y="-1040" width="130" height="30" as="geometry" />
        </mxCell>
        <mxCell id="qHf3B6MGzQlvMGt3Hq3a-7" value="" style="edgeStyle=orthogonalEdgeStyle;rounded=0;orthogonalLoop=1;jettySize=auto;html=1;" parent="1" source="qHf3B6MGzQlvMGt3Hq3a-4" target="qHf3B6MGzQlvMGt3Hq3a-6" edge="1">
          <mxGeometry relative="1" as="geometry" />
        </mxCell>
        <mxCell id="qHf3B6MGzQlvMGt3Hq3a-4" value="กำหนดตัวแปร&amp;nbsp;RealData&lt;div&gt;7, 4, 1, 8, 3, 2&lt;/div&gt;" style="rounded=0;whiteSpace=wrap;html=1;" parent="1" vertex="1">
          <mxGeometry x="-550" y="-970" width="150" height="40" as="geometry" />
        </mxCell>
        <mxCell id="qHf3B6MGzQlvMGt3Hq3a-9" value="" style="edgeStyle=orthogonalEdgeStyle;rounded=0;orthogonalLoop=1;jettySize=auto;html=1;" parent="1" source="qHf3B6MGzQlvMGt3Hq3a-6" target="qHf3B6MGzQlvMGt3Hq3a-8" edge="1">
          <mxGeometry relative="1" as="geometry" />
        </mxCell>
        <mxCell id="qHf3B6MGzQlvMGt3Hq3a-6" value="SequentialSearch&lt;div&gt;(RealData, 6, 8)&lt;/div&gt;" style="shape=process;whiteSpace=wrap;html=1;backgroundOutline=1;" parent="1" vertex="1">
          <mxGeometry x="-542.5" y="-900" width="135" height="60" as="geometry" />
        </mxCell>
        <mxCell id="R1RBBcDjvuozC0h5hfyW-24" value="" style="edgeStyle=orthogonalEdgeStyle;rounded=0;orthogonalLoop=1;jettySize=auto;html=1;" edge="1" parent="1" source="qHf3B6MGzQlvMGt3Hq3a-8" target="R1RBBcDjvuozC0h5hfyW-23">
          <mxGeometry relative="1" as="geometry" />
        </mxCell>
        <mxCell id="qHf3B6MGzQlvMGt3Hq3a-8" value="ปริ้นค่า&amp;nbsp;SequentialSearch" style="shape=parallelogram;perimeter=parallelogramPerimeter;whiteSpace=wrap;html=1;fixedSize=1;" parent="1" vertex="1">
          <mxGeometry x="-568.13" y="-800" width="186.25" height="40" as="geometry" />
        </mxCell>
        <mxCell id="R1RBBcDjvuozC0h5hfyW-2" value="" style="edgeStyle=orthogonalEdgeStyle;rounded=0;orthogonalLoop=1;jettySize=auto;html=1;" edge="1" parent="1" source="qHf3B6MGzQlvMGt3Hq3a-10" target="R1RBBcDjvuozC0h5hfyW-1">
          <mxGeometry relative="1" as="geometry" />
        </mxCell>
        <mxCell id="qHf3B6MGzQlvMGt3Hq3a-10" value="&lt;div&gt;Start&lt;/div&gt;SequentialSearch" style="shape=process;whiteSpace=wrap;html=1;backgroundOutline=1;" parent="1" vertex="1">
          <mxGeometry x="-232.5" y="-1030" width="135" height="60" as="geometry" />
        </mxCell>
        <mxCell id="R1RBBcDjvuozC0h5hfyW-12" style="edgeStyle=orthogonalEdgeStyle;rounded=0;orthogonalLoop=1;jettySize=auto;html=1;entryX=0.5;entryY=0;entryDx=0;entryDy=0;" edge="1" parent="1" source="R1RBBcDjvuozC0h5hfyW-1" target="R1RBBcDjvuozC0h5hfyW-10">
          <mxGeometry relative="1" as="geometry" />
        </mxCell>
        <mxCell id="R1RBBcDjvuozC0h5hfyW-1" value="กำหนดตัวแปร Output" style="rounded=0;whiteSpace=wrap;html=1;" vertex="1" parent="1">
          <mxGeometry x="-240" y="-940" width="150" height="40" as="geometry" />
        </mxCell>
        <mxCell id="R1RBBcDjvuozC0h5hfyW-9" value="" style="edgeStyle=orthogonalEdgeStyle;rounded=0;orthogonalLoop=1;jettySize=auto;html=1;" edge="1" parent="1" source="R1RBBcDjvuozC0h5hfyW-4" target="R1RBBcDjvuozC0h5hfyW-8">
          <mxGeometry relative="1" as="geometry" />
        </mxCell>
        <mxCell id="R1RBBcDjvuozC0h5hfyW-22" value="" style="edgeStyle=orthogonalEdgeStyle;rounded=0;orthogonalLoop=1;jettySize=auto;html=1;" edge="1" parent="1" source="R1RBBcDjvuozC0h5hfyW-4" target="R1RBBcDjvuozC0h5hfyW-18">
          <mxGeometry relative="1" as="geometry" />
        </mxCell>
        <mxCell id="R1RBBcDjvuozC0h5hfyW-4" value="RealData = 8 หรือไม่" style="rhombus;whiteSpace=wrap;html=1;" vertex="1" parent="1">
          <mxGeometry x="-232.92" y="-830" width="135.84" height="100" as="geometry" />
        </mxCell>
        <mxCell id="R1RBBcDjvuozC0h5hfyW-21" value="" style="edgeStyle=orthogonalEdgeStyle;rounded=0;orthogonalLoop=1;jettySize=auto;html=1;" edge="1" parent="1" source="R1RBBcDjvuozC0h5hfyW-6" target="R1RBBcDjvuozC0h5hfyW-16">
          <mxGeometry relative="1" as="geometry" />
        </mxCell>
        <mxCell id="R1RBBcDjvuozC0h5hfyW-6" value="ส่งค่าออกจาก&lt;div&gt;SequentialSearch&lt;/div&gt;" style="rounded=0;whiteSpace=wrap;html=1;" vertex="1" parent="1">
          <mxGeometry x="-20" y="-720" width="150" height="40" as="geometry" />
        </mxCell>
        <mxCell id="R1RBBcDjvuozC0h5hfyW-15" style="edgeStyle=orthogonalEdgeStyle;rounded=0;orthogonalLoop=1;jettySize=auto;html=1;entryX=0;entryY=0.5;entryDx=0;entryDy=0;" edge="1" parent="1" source="R1RBBcDjvuozC0h5hfyW-8" target="R1RBBcDjvuozC0h5hfyW-10">
          <mxGeometry relative="1" as="geometry">
            <Array as="points">
              <mxPoint x="-280" y="-640" />
              <mxPoint x="-280" y="-870" />
            </Array>
          </mxGeometry>
        </mxCell>
        <mxCell id="R1RBBcDjvuozC0h5hfyW-8" value="เพิ่ม i&amp;nbsp;" style="rounded=0;whiteSpace=wrap;html=1;" vertex="1" parent="1">
          <mxGeometry x="-240" y="-660" width="150" height="40" as="geometry" />
        </mxCell>
        <mxCell id="R1RBBcDjvuozC0h5hfyW-13" value="" style="edgeStyle=orthogonalEdgeStyle;rounded=0;orthogonalLoop=1;jettySize=auto;html=1;" edge="1" parent="1" source="R1RBBcDjvuozC0h5hfyW-10" target="R1RBBcDjvuozC0h5hfyW-4">
          <mxGeometry relative="1" as="geometry" />
        </mxCell>
        <mxCell id="R1RBBcDjvuozC0h5hfyW-10" value="" style="ellipse;whiteSpace=wrap;html=1;aspect=fixed;" vertex="1" parent="1">
          <mxGeometry x="-175" y="-880" width="20" height="20" as="geometry" />
        </mxCell>
        <mxCell id="R1RBBcDjvuozC0h5hfyW-16" value="&lt;div&gt;End&lt;/div&gt;SequentialSearch" style="shape=process;whiteSpace=wrap;html=1;backgroundOutline=1;" vertex="1" parent="1">
          <mxGeometry x="-12.499999999999986" y="-640" width="135" height="60" as="geometry" />
        </mxCell>
        <mxCell id="R1RBBcDjvuozC0h5hfyW-20" style="edgeStyle=orthogonalEdgeStyle;rounded=0;orthogonalLoop=1;jettySize=auto;html=1;entryX=0.5;entryY=0;entryDx=0;entryDy=0;" edge="1" parent="1" source="R1RBBcDjvuozC0h5hfyW-18" target="R1RBBcDjvuozC0h5hfyW-6">
          <mxGeometry relative="1" as="geometry" />
        </mxCell>
        <mxCell id="R1RBBcDjvuozC0h5hfyW-18" value="Break" style="rounded=0;whiteSpace=wrap;html=1;" vertex="1" parent="1">
          <mxGeometry x="-20" y="-800" width="150" height="40" as="geometry" />
        </mxCell>
        <mxCell id="R1RBBcDjvuozC0h5hfyW-23" value="&lt;font data-font-src=&quot;https://fonts.googleapis.com/css?family=Sarabun&quot; face=&quot;Sarabun&quot;&gt;End&lt;/font&gt;" style="ellipse;whiteSpace=wrap;html=1;" vertex="1" parent="1">
          <mxGeometry x="-540.0100000000001" y="-720" width="130" height="30" as="geometry" />
        </mxCell>
      </root>
    </mxGraphModel>
  </diagram>
</mxfile>
